<?xml version="1.0" encoding="utf-8"?>
<!-- Generator: Adobe Illustrator 21.0.2, SVG Export Plug-In . SVG Version: 6.00 Build 0)  -->
<svg version="1.1" id="Capa_1" xmlns="http://www.w3.org/2000/svg" xmlns:xlink="http://www.w3.org/1999/xlink" x="0px" y="0px"
	 width="179.2px" height="47.8px" viewBox="0 0 179.2 47.8" style="enable-background:new 0 0 179.2 47.8;" xml:space="preserve">
<style type="text/css">
	.st0{fill:#808080;}
	.st1{fill-rule:evenodd;clip-rule:evenodd;fill:#808080;}
</style>
<g>
	<path class="st0" d="M16.3,44.5C7.7,42.9,1.7,36.7,1.7,28.2c0-9.9,8.2-19.6,19.1-23.5C11.8,8.8,5.2,18.4,5.1,28.2
		C5,36.4,9.6,42.5,16.3,44.5z M35.3,3.4c8.4,1.7,14.3,7.8,14.3,16.2c0,10.1-8.6,20.1-19.9,23.8C39,39.4,46,29.6,46.1,19.5
		C46.2,11.5,41.8,5.5,35.3,3.4z"/>
	<g>
		<g>
			<defs>
				<path id="SVGID_1_" d="M22.4,12h6.3l11.2,17.8l-5.6,10H16.7l-5.6-10L22.4,12z"/>
			</defs>
			<use xlink:href="#SVGID_1_"  style="overflow:visible;fill-rule:evenodd;clip-rule:evenodd;fill:#808080;"/>
			<clipPath id="SVGID_2_">
				<use xlink:href="#SVGID_1_"  style="overflow:visible;"/>
			</clipPath>
		</g>
	</g>
	<g>
		<defs>
			<path id="SVGID_3_" d="M22.4,5.1h6.3v4.8h-6.3V5.1z"/>
		</defs>
		<use xlink:href="#SVGID_3_"  style="overflow:visible;fill-rule:evenodd;clip-rule:evenodd;fill:#808080;"/>
		<clipPath id="SVGID_4_">
			<use xlink:href="#SVGID_3_"  style="overflow:visible;"/>
		</clipPath>
	</g>
</g>
<g>
	<g>
		<path class="st1" d="M78,20c0-2.9-2.1-4.5-4.8-5.3c-2.8-0.9-6.1-0.9-8-0.9c-3.6,0-8.2,0.5-8.2,0.5s0,1.7,0,4.9
			c0,4.7,0,14.2,0,14.2h6.6v-16c0,0,7.9-1.1,7.9,2.7c0,2.5-3.4,3.1-4.9,3.1c-1,1.1-2.4,2.7-2.9,3.3c1.2,0.2,4.2,0.2,6.8-0.3
			C76.7,25,78,22.2,78,20z M147.6,23.8c-1-0.4-3.9-1.1-4.3-1.2c-1.5-0.5-2.6-0.8-2.6-1.9c0-1.4,2.5-1.7,4.3-1.7
			c1.9,0,3.2,0.3,4.9,0.9c0.4-1,0.9-2.1,1.3-3.1c-2.4-0.7-4.6-0.9-7.4-0.8c-2.2,0-8.5,0.8-9,4.7c-0.2,1.3,0.4,2.3,1,2.8
			c1.6,1.6,4.1,2.1,6.6,2.8c1.2,0.3,3.8,0.8,3.8,2.3c0,1.1-0.8,1.7-3.2,1.9c-2.2,0.2-4.4-0.3-6.1-0.7c-0.8,0.9-2.5,2.8-2.5,2.8
			s1.1,0.4,3.6,0.8c4.2,0.8,9.9,0.1,12.2-1.7c0.9-0.7,2-1.7,2-3.3C152.2,25.8,150,24.6,147.6,23.8z M91.6,16.1l-7.6,0l-8,17.2h6
			c0,0,0.7-1.5,1.3-3.1c0.8-2.1,1.6-4.5,1.6-4.5l2.6-6.7l2.9,7.1l-3.8,0l-2.5,2.9h7.3l2,4.4h6.3c0,0-0.7-1.4-1.6-3.4
			C95.7,24.8,91.6,16.1,91.6,16.1z M113.4,20c0,0-1.7,3.9-2.5,5.7c-1,2.3-1.5,4.1-1.5,4.1s-0.5-1.8-1.5-4.1
			c-0.7-1.8-2.4-5.7-2.4-5.7l-1.6-3.8l-6.4,0l8.2,17.2l6.9,0c0,0,5.8-11.5,8.7-17.2c-2.1,0-6.2,0-6.2,0L113.4,20z M130.2,28.4
			c0-4.1,0-8.2,0-12.3c-1.9,0-3.9,0-5.8,0c0,0,0,0-0.1,0v17.2c1.9,0,3.9,0,5.8,0c0.1-0.3,0.1-0.9,0.1-1.3V28.4z M175.4,29.9
			c-2.3-5-6.4-13.7-6.4-13.7l-7.6,0l-8,17.2h6c0,0,0.7-1.5,1.3-3.1c0.8-2.1,1.6-4.5,1.6-4.5l2.6-6.7l2.9,7.1l-3.8,0l-2.5,2.9h7.3
			l2,4.4h6.3C177,33.3,176.3,31.9,175.4,29.9z"/>
	</g>
</g>
</svg>
