<svg xmlns="http://www.w3.org/2000/svg"
     style="isolation:isolate"
     viewBox="1687.26 1417.39 117.84 38.61"
     width="157.12"
     height="51.49">
    <path d="M1694.92 1447.27l-5.91-16.48v16.48h-1.75v-21.14h1.75l5.9 16.48-.02-16.48h1.75v21.14zM1718.16 1446.26a4.22 4.22 0 0 1-3.17 1.25 4.14 4.14 0 0 1-3.15-1.25c-1.34-1.43-1.48-3.09-1.48-9.56 0-6.48.14-8.14 1.48-9.56a4.14 4.14 0 0 1 3.15-1.25c1.36 0 2.46.48 3.17 1.25 1.34 1.42 1.49 3.08 1.49 9.56 0 6.47-.15 8.13-1.49 9.56zm-1.27-18.03a2.4 2.4 0 0 0-1.9-.76c-.86 0-1.46.29-1.87.76-.86 1.05-1.01 2.26-1.01 8.47 0 6.2.15 7.42 1 8.46.42.47 1.02.77 1.88.77.86 0 1.48-.3 1.9-.77.86-1.04 1-2.26 1-8.46 0-6.2-.14-7.42-1-8.47zM1740.64 1446.29a4.44 4.44 0 0 1-3.12 1.22 4.42 4.42 0 0 1-3.11-1.22 4.7 4.7 0 0 1-1.28-3.42v-16.74h1.75v16.9c0 1.8 1.19 2.9 2.64 2.9 1.45 0 2.62-1.1 2.62-2.9v-16.9h1.74v16.74a4.7 4.7 0 0 1-1.24 3.42zM1760.11 1447.27h-1.72l-4.51-21.14h1.93l3.44 18 3.45-18h1.92zM1776.86 1447.27v-21.14h7.36v1.57h-5.61v8.2h4.84v1.57h-4.84v8.22h5.6v1.58zM1797.73 1447.27v-21.14h1.75v19.56h5.61v1.58z"/>
</svg>
